<svg xmlns="http://www.w3.org/2000/svg" viewBox="0 -100 392.2 290" style="height: 150px; color: rgb(39, 184, 130); display: block;"><g fill="white"><path d="M35.6 15.5c2.3-1 4.6-1.8 6.8-2.4 4.1 4.6 3.2 12.6-1.7 19.9l-6.5-4.4c3.5-4.9 4.4-10 1.4-13.1zM63 10.7c4.9 8.6 2.5 21.6-5.8 33.4l-9.6-6.4c6.6-9.5 7.9-20.1 2.9-26.3 5.5-.8 10.1-.8 12.5-.7zM30.6 18.1c1.2 1.9.9 4.8-.7 7.5l-5.1-3.4c1.8-1.5 3.8-2.9 5.8-4.1z"></path></g><g fill="white"><path d="M14.8 27.5c0-2.1 1.1-4.6 3-6.8l1.5 1.9c-1.7 1.6-3.2 3.3-4.5 4.9zM17.5 17c5.9-5.3 12.9-7.8 18.4-7.2-1.8 1-3.8 2.2-5.7 3.5-3.5 0-7.6 1.6-11.2 4.7l-1.5-1zM11.2 43.9c.7-2.4 1.7-4.8 2.8-7.2 3.3 3.2 9.2 2 14.6-2.1l4.9 6.3c-8 6-17.3 7.4-22.3 3zM17.1 19.9c-3.3 3.6-5.1 7.7-5.2 11.3-1.6 2.1-2.9 4.2-4 6.2-.7-5.7 2.2-12.9 8.1-18.8l1.1 1.3zM45.4 56.4C32.4 66.5 17.3 69.5 8 63.6c0-2.6.3-6.8 1.2-11.7 6.8 5.5 18.9 3.5 29.2-4.6l7 9.1z"></path><path d="M15.9 15.9C29.2 3.3 45.8-1.2 56.2 4.2c-2.7 0-7.5.3-13.6 2.6-7.6-1.5-17.6 2-25.9 9.7l-.8-.6zM2 56.8c-5.1-10.5-.1-27 12.8-39.9l.6.8C7.1 26.1 3.2 36.4 4.7 44.2 2.6 49.6 2 54 2 56.8zM25.4 30.4c-3.1 2.1-6.5 2.6-8.7 1.2 1.4-2.2 2.9-4.3 4.8-6.2l3.9 5zM19.8 18.7c2.2-1.7 4.6-2.6 6.7-2.6-1.5 1.2-3.1 2.6-4.7 4l-2-1.4z"></path></g><path fill-rule="evenodd" clip-rule="evenodd" fill="white" stroke="white" d="M79.8 0v68.6"></path><g><g fill="white"><path d="M125.5 40.3c-.5 1.8-1.2 3.1-2.1 4.2-1 1-2.1 1.8-3.5 2.4-1.4.6-3 .9-4.7 1.1s-3.7.3-5.8.3c-2.9 0-5.1-.2-6.8-.6s-3-1.1-3.8-2c-.8-.9-1.2-2.1-1.2-3.6s.3-3.3.8-5.5c.6-2.2 1.3-4.1 2.1-5.6s1.8-2.7 3.1-3.6c1.3-.9 2.9-1.6 4.8-2s4.4-.6 7.2-.6c2.7 0 4.9.2 6.6.5 1.7.4 3 1 3.8 1.9.8.9 1.3 2.1 1.3 3.6.1 1.5-.2 3.5-.8 5.8l-.3 1.3h-18.7c-.3 1-.5 1.9-.5 2.5-.1.7 0 1.2.3 1.6.2.4.6.7 1.2.9.5.2 1.3.2 2.3.2 1.5 0 2.7-.1 3.6-.4 1-.3 1.6-1 1.9-2.2h9.2zm-7.7-6.7c.2-.8.3-1.5.2-2-.1-.5-.3-.8-.6-1.1-.3-.2-.8-.4-1.4-.5-.6-.1-1.3-.1-2.1-.1s-1.6.1-2.1.2c-.6.1-1.1.3-1.5.5-.4.3-.8.6-1 1.1-.3.5-.5 1.1-.7 1.8h9.2zM150.3 35.8l5.1 12.2h-11.1l-2.1-7.6-6 7.6h-11.4l11.8-12.2-4.5-10.8H143l1.6 6.4 5.2-6.4h11l-10.5 10.8zM164.2 25h9.4l-1.2 3.6h.4c1-1.6 2.2-2.6 3.8-3.1 1.6-.5 3.4-.8 5.5-.8 3.5 0 6 .7 7.5 2 1.6 1.3 1.9 3.5 1.1 6.5l-1.4 5.3c-.5 1.8-1.1 3.3-1.8 4.5-.7 1.2-1.6 2.3-2.7 3.1-1.1.8-2.4 1.4-3.8 1.7-1.5.4-3.2.5-5.2.5-.9 0-1.7 0-2.5-.1s-1.5-.3-2.1-.5c-.6-.3-1.2-.7-1.6-1.1-.4-.5-.7-1.1-.9-1.9h-.4L164.9 58h-9.4l8.7-33zm10.2 5.8c-.7.2-1.2.5-1.7.9s-.8 1-1.2 1.8c-.3.8-.6 1.8-1 3-.3 1-.4 1.8-.6 2.6-.1.7-.1 1.4.1 1.9s.6.9 1.1 1.1c.6.3 1.4.4 2.5.4 1 0 1.8-.1 2.5-.2s1.3-.4 1.8-.8 1-1 1.3-1.8c.4-.8.8-1.8 1.1-3.1.3-1.1.5-2.1.6-2.8.1-.8.1-1.4-.1-1.9s-.7-.8-1.3-1c-.6-.2-1.6-.3-2.8-.3-.8-.1-1.6 0-2.3.2zM220.8 40.3c-.5 1.8-1.2 3.1-2.1 4.2-1 1-2.1 1.8-3.5 2.4-1.4.6-3 .9-4.7 1.1s-3.7.3-5.8.3c-2.9 0-5.1-.2-6.8-.6s-3-1.1-3.8-2c-.8-.9-1.2-2.1-1.2-3.6s.3-3.3.8-5.5c.6-2.2 1.3-4.1 2.1-5.6s1.8-2.7 3.1-3.6c1.3-.9 2.9-1.6 4.8-2s4.4-.6 7.2-.6c2.7 0 4.9.2 6.6.5 1.7.4 3 1 3.8 1.9.8.9 1.3 2.1 1.3 3.6.1 1.5-.2 3.5-.8 5.8l-.3 1.3h-18.7c-.3 1-.5 1.9-.5 2.5-.1.7 0 1.2.3 1.6.2.4.6.7 1.2.9.5.2 1.3.2 2.3.2 1.5 0 2.7-.1 3.6-.4 1-.3 1.6-1 1.9-2.2h9.2zm-7.7-6.7c.2-.8.3-1.5.2-2-.1-.5-.3-.8-.6-1.1-.3-.2-.8-.4-1.4-.5-.6-.1-1.3-.1-2.1-.1s-1.6.1-2.1.2c-.6.1-1.1.3-1.5.5-.4.3-.8.6-1 1.1-.3.5-.5 1.1-.7 1.8h9.2zM251.1 48h-9.4l1.3-4h-.4c-.5.9-1.1 1.6-1.7 2.1-.6.5-1.4 1-2.1 1.3-.8.3-1.6.5-2.6.7-.9.1-1.9.2-2.9.2-3.5 0-6-.7-7.6-2-1.6-1.3-1.9-3.5-1.1-6.5l1.4-5.3c.5-1.8 1.1-3.3 1.8-4.5.7-1.2 1.6-2.3 2.7-3.1 1.1-.8 2.4-1.4 3.8-1.7 1.5-.4 3.2-.5 5.2-.5.9 0 1.7 0 2.5.1s1.5.3 2.1.5c.6.3 1.2.6 1.6 1.1.4.5.8 1.1.9 1.8h.4l3.5-13.2h9.4l-8.8 33zm-17-8.2c-.1.8 0 1.4.3 1.8s.7.6 1.3.7 1.4.1 2.4.1 1.8-.1 2.5-.2 1.3-.4 1.8-.8 1-1 1.3-1.8c.4-.8.7-1.8 1.1-3.1.3-1.1.5-2.1.6-2.8.1-.8.1-1.4-.1-1.9s-.6-.8-1.2-1c-.6-.2-1.6-.3-2.8-.3-1.2 0-2.1.1-2.8.3-.7.2-1.3.5-1.7 1-.4.5-.8 1.1-1 1.8-.3.8-.6 1.7-.9 2.9-.5 1.4-.8 2.5-.8 3.3zM265.8 48h-9.4l6.1-23h9.4l-6.1 23zm7.2-27.1h-9.4l1.5-5.8h9.4l-1.5 5.8zM297.4 30.5h-10.9l-2.7 10.3c-.2.7-.2 1.2 0 1.5.2.3.7.5 1.6.5.6 0 1.1-.1 1.5-.2.4-.2.7-.4.9-.7.2-.3.4-.6.5-.9.1-.4.2-.7.4-1.1l.4-1.2h7.5l-.5 2.1c-.4 1.6-.9 2.9-1.6 3.9-.7 1-1.5 1.8-2.5 2.3-1 .6-2.2 1-3.6 1.2-1.4.2-3.1.3-5 .3-1.5 0-2.9-.1-4.2-.2-1.3-.1-2.4-.4-3.3-.8s-1.5-1.1-1.9-1.9c-.4-.8-.3-2 .1-3.5l3-11.4h-3.5L275 25h3.5l1.3-4.9h9.4L288 25h10.9l-1.5 5.5zM326.6 40.3c-.5 1.8-1.2 3.1-2.1 4.2-1 1-2.1 1.8-3.5 2.4-1.4.6-3 .9-4.7 1.1s-3.7.3-5.8.3c-2.9 0-5.1-.2-6.8-.6-1.7-.4-3-1.1-3.8-2-.8-.9-1.2-2.1-1.2-3.6s.3-3.3.9-5.5c.6-2.2 1.3-4.1 2.1-5.6s1.8-2.7 3.1-3.6c1.3-.9 2.9-1.6 4.8-2 1.9-.4 4.4-.6 7.2-.6 2.7 0 4.9.2 6.6.5 1.7.4 3 1 3.8 1.9.8.9 1.3 2.1 1.3 3.6.1 1.5-.2 3.5-.9 5.8l-.3 1.3h-18.7c-.3 1-.5 1.9-.5 2.5-.1.7 0 1.2.3 1.6.2.4.6.7 1.2.9.5.2 1.3.2 2.3.2 1.5 0 2.7-.1 3.6-.4 1-.3 1.6-1 1.9-2.2h9.2zm-7.7-6.7c.2-.8.3-1.5.2-2-.1-.5-.3-.8-.6-1.1-.3-.2-.8-.4-1.4-.5-.6-.1-1.3-.1-2.1-.1s-1.6.1-2.1.2c-.6.1-1.1.3-1.5.5-.4.3-.8.6-1 1.1-.3.5-.5 1.1-.7 1.8h9.2zM358.1 38.8c-.6 2.2-1.3 3.9-2.1 5.1-.8 1.2-1.9 2.2-3.2 2.8-1.3.7-2.8 1.1-4.6 1.3-1.8.2-4 .3-6.5.3-2.8 0-5-.2-6.7-.6-1.7-.4-2.9-1-3.7-1.9-.8-.9-1.2-2.1-1.2-3.6s.3-3.4.9-5.7c.5-2 1.1-3.7 1.9-5.1.7-1.5 1.7-2.7 3-3.7 1.2-1 2.8-1.7 4.7-2.2 1.9-.5 4.4-.7 7.3-.7 2.1 0 4 .1 5.6.2 1.7.2 3 .5 4.1 1.1 1.1.6 1.8 1.5 2.1 2.7.4 1.2.3 2.8-.3 4.8H350c.4-1.2.3-2-.1-2.5-.3-.2-.7-.4-1.3-.5-.5-.1-1.3-.2-2.3-.2-.8 0-1.6.1-2.1.2-.6.1-1.1.4-1.6.8s-.9 1-1.2 1.8-.7 1.8-1 3.2c-.4 1.3-.6 2.4-.7 3.2-.1.8 0 1.4.2 1.8.2.4.6.7 1.1.8.5.1 1.2.2 2.1.2 1.1 0 1.9-.1 2.6-.2.6-.1 1.1-.3 1.5-.6.4-.3.6-.7.8-1.1.2-.5.4-1.1.6-1.8h9.5zM374.3 29.3h.4c.6-.9 1.2-1.7 1.9-2.2.7-.6 1.4-1.1 2.2-1.4s1.7-.6 2.6-.7c1-.1 2-.2 3.1-.2 3.2 0 5.4.6 6.6 1.8 1.2 1.2 1.4 3.1.7 5.6L387.6 48h-9.4l3.8-14.2c.3-1.1.2-1.9-.2-2.5-.4-.6-1.3-.8-2.9-.8-1.1 0-1.9.1-2.7.4-.7.2-1.3.6-1.8 1s-.8 1-1.1 1.5c-.3.6-.5 1.2-.7 1.9L369.3 48h-9.4l8.7-32.9h9.4l-3.7 14.2z"></path></g></g></svg>